<?xml version="1.0" encoding="utf-8"?>
<!-- Generator: Adobe Illustrator 19.0.0, SVG Export Plug-In . SVG Version: 6.00 Build 0)  -->
<svg version="1.1" id="Layer_1" xmlns="http://www.w3.org/2000/svg" xmlns:xlink="http://www.w3.org/1999/xlink" x="0px" y="0px"
	 viewBox="0 0 416.7 458.2" style="enable-background:new 0 0 416.7 458.2;" xml:space="preserve">
<style type="text/css">
	.st0{fill:#3CB46E;}
	.st1{fill:#FFFFFF;}
</style>
<g id="XMLID_2_">
	<path id="XMLID_12_" class="st0" d="M210.7,447.1c-10.3,0-20.6-2.3-28.6-6.9l-140.8-81c-16.1-9.2-28.6-31-28.6-49.5V148
		c0-18.5,12.6-40.2,28.6-49.5l140.8-81c16-9.2,41.1-9.2,57.1,0l140.8,81c16.1,9.2,28.6,31,28.6,49.5v161.8
		c0,18.5-12.6,40.2-28.6,49.5l-140.8,81C231.2,444.8,221,447.1,210.7,447.1z M210.7,34.6c-6.1,0-12.3,1.2-16.6,3.7l-140.8,81
		c-8.7,5-16.6,18.6-16.6,28.6v161.8c0,10,7.9,23.7,16.6,28.6l140.8,81c8.7,5,24.5,5,33.2,0l140.8-81c8.7-5,16.6-18.6,16.6-28.6V148
		c0-10-7.9-23.7-16.6-28.6l-140.8-81C222.9,35.8,216.8,34.6,210.7,34.6z"/>
</g>
<path id="XMLID_4_" class="st0" d="M183.7,115.2c-23.2,0-42,18.8-42,42v185h96c23.2,0,42-18.8,42-42v-185H183.7z"/>
<g id="XMLID_9_">
	<path id="XMLID_5_" class="st0" d="M130.7,228.2v-70.5c0-32.8,14-41.1,42.3-55c-3.6-2.4-8.5-5.3-16.8-9.3
		c-21.7,10.2-42.5,23.7-42.5,59.5v75.2H130.7z"/>
</g>
<g id="XMLID_10_">
	<path id="XMLID_6_" class="st0" d="M265,364.2c21.7-10.2,42.6-23.7,42.6-59.5v-76.5h-17V300c0,32.8-14,41.1-42.3,55
		C252,357.3,256.7,360.3,265,364.2z"/>
</g>
<path id="XMLID_1_" class="st1" d="M244.6,312h-67.9c-8.7,0-15.7-7-15.7-15.7V161.2c0-8.7,7-15.7,15.7-15.7h67.9
	c8.7,0,15.7,7,15.7,15.7v135.1C260.3,305,253.3,312,244.6,312z"/>
</svg>
