<?xml version="1.0" encoding="utf-8"?>
<!-- Generator: Adobe Illustrator 19.0.0, SVG Export Plug-In . SVG Version: 6.00 Build 0)  -->
<svg version="1.1" id="Layer_1" xmlns="http://www.w3.org/2000/svg" xmlns:xlink="http://www.w3.org/1999/xlink" x="0px" y="0px"
	 viewBox="0 0 418 458" style="enable-background:new 0 0 418 458;" xml:space="preserve">
<style type="text/css">
	.st0{fill:#3cb46e;}
</style>
<g id="XMLID_2_">
	<g id="XMLID_1_">
		<path id="XMLID_12_" class="st0" d="M208,447.9c-10.3,0-20.6-2.3-28.6-6.9L38.6,360c-16.1-9.2-28.6-31-28.6-49.5V148.8
			c0-18.5,12.6-40.2,28.6-49.5l140.8-81c16-9.2,41.1-9.2,57.1,0l140.8,81c16.1,9.2,28.6,31,28.6,49.5v161.8
			c0,18.5-12.6,40.2-28.6,49.5l-140.8,81C228.6,445.6,218.3,447.9,208,447.9z M208,35.4c-6.1,0-12.3,1.2-16.6,3.7l-140.8,81
			c-8.7,5-16.6,18.6-16.6,28.6v161.8c0,10,7.9,23.7,16.6,28.6l140.8,81c8.7,5,24.5,5,33.2,0l140.8-81c8.7-5,16.6-18.6,16.6-28.6
			V148.8c0-10-7.9-23.7-16.6-28.6l-140.8-81C220.3,36.6,214.1,35.4,208,35.4z"/>
	</g>
	<g id="XMLID_4_">
		<path id="XMLID_7_" class="st0" d="M235,343h-96V158c0-23.2,18.8-42,42-42h96v185C277,324.2,258.2,343,235,343z M143,339h92
			c21,0,38-17,38-38V120h-92c-21,0-38,17-38,38V339z"/>
	</g>
	<g id="XMLID_9_">
		<path id="XMLID_5_" class="st0" d="M128,229v-70.5c0-32.8,14-41.1,42.3-55c-3.6-2.4-8.5-5.3-16.8-9.3
			C131.9,104.5,111,118,111,153.8V229H128z"/>
	</g>
	<g id="XMLID_10_">
		<path id="XMLID_3_" class="st0" d="M262.4,365c21.7-10.2,42.6-23.7,42.6-59.5V229h-17v71.8c0,32.8-14,41.1-42.3,55
			C249.3,358.1,254,361.1,262.4,365z"/>
	</g>
</g>
</svg>
