<?xml version="1.0" encoding="iso-8859-1"?>
<svg version="1.1" xmlns="http://www.w3.org/2000/svg" xmlns:xlink="http://www.w3.org/1999/xlink" x="0px" y="0px"
	 viewBox="0 0 24 24" style="enable-background:new 0 0 512 512;" xml:space="preserve">
  <path d="M10.4 18.2c-4.2-.6-7.2-4.5-6.6-8.8.6-4.2 4.5-7.2 8.8-6.6 4.2.6 7.2 4.5 6.6 8.8-.6 4.2-4.6 7.2-8.8 6.6M23 22l-5-5c1.4-1.4 2.3-3.1 2.6-5.2.7-5.1-2.8-9.7-7.8-10.5-5-.7-9.7 2.8-10.5 7.9-.7 5.1 2.8 9.7 7.8 10.5 2.5.4 4.9-.3 6.7-1.7v.1l5 5c.3.3.8.3 1.1 0 .3-.3.4-.8.1-1.1">
  </path>
</svg>